<svg width="30" height="30" fill="none" xmlns="http://www.w3.org/2000/svg"><path d="M15 .469C6.972.469.469 6.973.469 15c0 8.027 6.504 14.531 14.531 14.531 8.028 0 14.531-6.504 14.531-14.531C29.531 6.973 23.027.469 15 .469zm7.137 9.955l-2.385 11.239c-.176.797-.65.99-1.312.615L14.807 19.6l-1.752 1.688c-.193.193-.357.357-.732.357l.257-3.697 6.732-6.083c.294-.258-.064-.404-.451-.146l-8.32 5.238-3.587-1.12c-.779-.245-.796-.779.164-1.154l14.01-5.403c.651-.234 1.22.159 1.008 1.143l.001.001z" fill="#000"/></svg>