<svg width="30" height="30" fill="none" xmlns="http://www.w3.org/2000/svg"><path fill-rule="evenodd" clip-rule="evenodd" d="M15 30C6.716 30 0 23.284 0 15 0 6.716 6.716 0 15 0c8.284 0 15 6.716 15 15 0 8.284-6.716 15-15 15zm.494-6.655c4.918-.002 8.918-4.002 8.92-8.92a8.865 8.865 0 00-2.61-6.31 8.862 8.862 0 00-6.31-2.615c-4.916 0-8.917 4.001-8.92 8.919 0 1.572.41 3.106 1.191 4.459L6.5 23.5l4.728-1.24a8.912 8.912 0 004.263 1.085h.003z" fill="#000"/><path fill-rule="evenodd" clip-rule="evenodd" d="M11.447 20.645l-2.805.736.749-2.736-.177-.28a7.396 7.396 0 01-1.133-3.946c.001-4.087 3.327-7.413 7.416-7.413 1.98.001 3.842.773 5.242 2.175a7.369 7.369 0 012.169 5.244c-.002 4.088-3.327 7.414-7.414 7.414h-.002a7.403 7.403 0 01-3.774-1.033l-.27-.161zm8.541-4.098c-.056-.093-.204-.149-.427-.26-.223-.112-1.319-.651-1.523-.725-.204-.075-.353-.112-.501.111-.149.223-.576.725-.706.874-.13.149-.26.167-.483.056-.223-.112-.94-.347-1.792-1.106-.663-.591-1.11-1.321-1.24-1.544-.13-.223-.014-.344.098-.455.1-.1.223-.26.334-.39.112-.13.149-.224.223-.372.074-.15.037-.28-.019-.39-.055-.112-.501-1.21-.687-1.656-.18-.434-.364-.375-.501-.382a8.876 8.876 0 00-.427-.008.819.819 0 00-.595.279c-.204.223-.78.762-.78 1.859s.799 2.157.91 2.305c.112.15 1.572 2.4 3.808 3.366.531.23.946.366 1.27.47.534.169 1.02.145 1.404.087.428-.064 1.318-.539 1.504-1.06.186-.52.186-.966.13-1.06z" fill="#000"/></svg>